<svg xmlns="http://www.w3.org/2000/svg" width="20" height="19.999" viewBox="0 0 20 19.999">
  <path id="telephone-fill" d="M2.356.639a2.181,2.181,0,0,1,3.262.2L7.862,3.725a2.181,2.181,0,0,1,.394,1.867L7.572,8.33a.848.848,0,0,0,.222.8L10.866,12.2a.847.847,0,0,0,.8.222l2.736-.684a2.181,2.181,0,0,1,1.867.394l2.882,2.242a2.181,2.181,0,0,1,.2,3.264l-1.292,1.293a3.471,3.471,0,0,1-3.6.878A23.292,23.292,0,0,1,5.71,14.289,23.293,23.293,0,0,1,.185,5.527a3.475,3.475,0,0,1,.879-3.6Z" transform="translate(0 -0.001)" fill="#292929"/>
</svg>
